<svg width="101" height="101" viewBox="0 0 101 101" fill="none" xmlns="http://www.w3.org/2000/svg">
<mask id="mask0_122_56" style="mask-type:alpha" maskUnits="userSpaceOnUse" x="0" y="0" width="101" height="101">
<rect x="0.709717" y="0.478027" width="100" height="100" fill="#D9D9D9"/>
</mask>
<g mask="url(#mask0_122_56)">
<path d="M27.7931 67.1448C31.057 67.1448 34.2341 67.5094 37.3244 68.2385C40.4147 68.9677 43.4876 70.0614 46.5431 71.5198V30.4781C43.6959 28.8114 40.6751 27.5614 37.4806 26.7281C34.2862 25.8948 31.057 25.4781 27.7931 25.4781C25.2931 25.4781 22.8105 25.7212 20.3452 26.2073C17.8799 26.6934 15.5015 27.4226 13.2098 28.3948V69.6448C15.6404 68.8114 18.0535 68.1864 20.4494 67.7698C22.8452 67.3531 25.2931 67.1448 27.7931 67.1448ZM54.8765 71.5198C57.932 70.0614 61.0049 68.9677 64.0952 68.2385C67.1855 67.5094 70.3626 67.1448 73.6265 67.1448C76.1265 67.1448 78.5744 67.3531 80.9702 67.7698C83.366 68.1864 85.7792 68.8114 88.2098 69.6448V28.3948C85.9181 27.4226 83.5397 26.6934 81.0744 26.2073C78.6091 25.7212 76.1265 25.4781 73.6265 25.4781C70.3626 25.4781 67.1334 25.8948 63.939 26.7281C60.7445 27.5614 57.7237 28.8114 54.8765 30.4781V71.5198ZM50.7098 83.8114C47.3765 81.1726 43.7654 79.1239 39.8765 77.6656C35.9876 76.2073 31.9598 75.4781 27.7931 75.4781C24.8765 75.4781 22.0119 75.8601 19.1994 76.6239C16.3869 77.3878 13.6959 78.4642 11.1265 79.8531C9.66813 80.617 8.26188 80.5823 6.90771 79.7489C5.55355 78.9156 4.87646 77.7003 4.87646 76.1031V25.8948C4.87646 25.1309 5.06744 24.4017 5.44938 23.7073C5.83133 23.0128 6.40424 22.492 7.16813 22.1448C10.3626 20.4781 13.6959 19.2281 17.1681 18.3948C20.6404 17.5614 24.182 17.1448 27.7931 17.1448C31.8209 17.1448 35.7619 17.6656 39.616 18.7073C43.4702 19.7489 47.1681 21.3114 50.7098 23.3948C54.2515 21.3114 57.9494 19.7489 61.8035 18.7073C65.6577 17.6656 69.5987 17.1448 73.6265 17.1448C77.2376 17.1448 80.7792 17.5614 84.2515 18.3948C87.7237 19.2281 91.057 20.4781 94.2515 22.1448C95.0154 22.492 95.5883 23.0128 95.9702 23.7073C96.3522 24.4017 96.5431 25.1309 96.5431 25.8948V76.1031C96.5431 77.7003 95.866 78.9156 94.5119 79.7489C93.1577 80.5823 91.7515 80.617 90.2931 79.8531C87.7237 78.4642 85.0327 77.3878 82.2202 76.6239C79.4077 75.8601 76.5431 75.4781 73.6265 75.4781C69.4598 75.4781 65.432 76.2073 61.5431 77.6656C57.6542 79.1239 54.0431 81.1726 50.7098 83.8114Z" fill="#1C1B1F"/>
</g>
</svg>
