<svg width="100" height="100" viewBox="0 0 100 100" fill="none" xmlns="http://www.w3.org/2000/svg">
<path d="M27.0833 66.6668C30.3472 66.6668 33.5243 67.0313 36.6145 67.7605C39.7048 68.4897 42.7777 69.5834 45.8333 71.0418V30.0001C42.9861 28.3334 39.9652 27.0834 36.7708 26.2501C33.5763 25.4167 30.3472 25.0001 27.0833 25.0001C24.5833 25.0001 22.1007 25.2431 19.6354 25.7292C17.1701 26.2154 14.7916 26.9445 12.5 27.9167V69.1668C14.9305 68.3334 17.3437 67.7084 19.7395 67.2918C22.1354 66.8751 24.5833 66.6668 27.0833 66.6668ZM54.1666 71.0418C57.2222 69.5834 60.2951 68.4897 63.3854 67.7605C66.4757 67.0313 69.6527 66.6668 72.9166 66.6668C75.4166 66.6668 77.8645 66.8751 80.2604 67.2918C82.6562 67.7084 85.0694 68.3334 87.5 69.1668V27.9167C85.2083 26.9445 82.8298 26.2154 80.3645 25.7292C77.8993 25.2431 75.4166 25.0001 72.9166 25.0001C69.6527 25.0001 66.4236 25.4167 63.2291 26.2501C60.0347 27.0834 57.0139 28.3334 54.1666 30.0001V71.0418ZM50 83.3334C46.6666 80.6945 43.0555 78.6459 39.1666 77.1876C35.2777 75.7293 31.25 75.0001 27.0833 75.0001C24.1666 75.0001 21.302 75.382 18.4895 76.1459C15.677 76.9098 12.9861 77.9862 10.4166 79.3751C8.95829 80.139 7.55204 80.1043 6.19788 79.2709C4.84371 78.4376 4.16663 77.2223 4.16663 75.6251V25.4167C4.16663 24.6529 4.3576 23.9237 4.73954 23.2292C5.12149 22.5348 5.6944 22.014 6.45829 21.6667C9.65274 20.0001 12.9861 18.7501 16.4583 17.9167C19.9305 17.0834 23.4722 16.6667 27.0833 16.6667C31.1111 16.6667 35.052 17.1876 38.9062 18.2292C42.7604 19.2709 46.4583 20.8334 50 22.9167C53.5416 20.8334 57.2395 19.2709 61.0937 18.2292C64.9479 17.1876 68.8888 16.6667 72.9166 16.6667C76.5277 16.6667 80.0694 17.0834 83.5416 17.9167C87.0139 18.7501 90.3472 20.0001 93.5416 21.6667C94.3055 22.014 94.8784 22.5348 95.2604 23.2292C95.6423 23.9237 95.8333 24.6529 95.8333 25.4167V75.6251C95.8333 77.2223 95.1562 78.4376 93.802 79.2709C92.4479 80.1043 91.0416 80.139 89.5833 79.3751C87.0139 77.9862 84.3229 76.9098 81.5104 76.1459C78.6979 75.382 75.8333 75.0001 72.9166 75.0001C68.75 75.0001 64.7222 75.7293 60.8333 77.1876C56.9444 78.6459 53.3333 80.6945 50 83.3334Z" fill="black"/>
</svg>
