<svg width="101" height="100" viewBox="0 0 101 100" fill="none" xmlns="http://www.w3.org/2000/svg">
<path d="M18.9375 41.6667C19.9098 39.1667 20.066 36.9444 19.4063 35C18.7466 33.0556 17.6181 31.1111 16.0209 29.1667C13.7292 26.3889 12.2188 23.7674 11.4896 21.3021C10.7605 18.8368 10.6389 15.9028 11.125 12.5H19.25C18.6945 15.1389 18.6077 17.2917 18.9896 18.9583C19.3716 20.625 20.3612 22.4306 21.9584 24.375C24.5973 27.5694 26.2813 30.3993 27.0105 32.8646C27.7396 35.3299 27.757 38.2639 27.0625 41.6667H18.9375ZM35.6042 41.6667C36.5764 39.1667 36.75 36.9444 36.125 35C35.5 33.0556 34.3889 31.1111 32.7917 29.1667C30.5 26.3889 28.9723 23.7674 28.2084 21.3021C27.4445 18.8368 27.3056 15.9028 27.7917 12.5H35.9167C35.3612 15.1389 35.2743 17.2917 35.6563 18.9583C36.0382 20.625 37.0278 22.4306 38.625 24.375C41.2639 27.5694 42.948 30.3993 43.6771 32.8646C44.4063 35.3299 44.4237 38.2639 43.7292 41.6667H35.6042ZM52.2709 41.6667C53.2431 39.1667 53.4167 36.9444 52.7917 35C52.1667 33.0556 51.0556 31.1111 49.4584 29.1667C47.1667 26.3889 45.6389 23.7674 44.875 21.3021C44.1112 18.8368 43.9723 15.9028 44.4584 12.5H52.5834C52.0278 15.1389 51.941 17.2917 52.323 18.9583C52.7049 20.625 53.6945 22.4306 55.2917 24.375C57.9306 27.5694 59.6146 30.3993 60.3438 32.8646C61.073 35.3299 61.0903 38.2639 60.3959 41.6667H52.2709ZM21.3334 83.3333C17.8612 83.3333 14.9098 82.118 12.4792 79.6875C10.0487 77.2569 8.83337 74.3055 8.83337 70.8333V50H67.2709C67.6181 47.6389 68.5556 45.5729 70.0834 43.8021C71.6112 42.0312 73.4862 40.7639 75.7084 40L94.9792 33.5417L97.5834 41.4583L78.3125 47.9167C77.4792 48.1944 76.8021 48.6979 76.2813 49.4271C75.7605 50.1562 75.5 50.9722 75.5 51.875V70.8333C75.5 74.3055 74.2848 77.2569 71.8542 79.6875C69.4237 82.118 66.4723 83.3333 63 83.3333H21.3334ZM21.3334 75H63C64.1806 75 65.1702 74.6007 65.9688 73.8021C66.7674 73.0035 67.1667 72.0139 67.1667 70.8333V58.3333H17.1667V70.8333C17.1667 72.0139 17.566 73.0035 18.3646 73.8021C19.1632 74.6007 20.1528 75 21.3334 75Z" fill="black"/>
</svg>
