<svg width="100" height="100" viewBox="0 0 100 100" fill="none" xmlns="http://www.w3.org/2000/svg">
<mask id="mask0_122_50" style="mask-type:alpha" maskUnits="userSpaceOnUse" x="0" y="0" width="100" height="100">
<rect width="100" height="100" fill="#D9D9D9"/>
</mask>
<g mask="url(#mask0_122_50)">
<path d="M18.4375 41.6667C19.4098 39.1667 19.566 36.9444 18.9063 35C18.2466 33.0556 17.1181 31.1111 15.5209 29.1667C13.2292 26.3889 11.7188 23.7674 10.9896 21.3021C10.2605 18.8368 10.1389 15.9028 10.625 12.5H18.75C18.1945 15.1389 18.1077 17.2917 18.4896 18.9583C18.8716 20.625 19.8612 22.4306 21.4584 24.375C24.0973 27.5694 25.7813 30.3993 26.5105 32.8646C27.2396 35.3299 27.257 38.2639 26.5625 41.6667H18.4375ZM35.1042 41.6667C36.0764 39.1667 36.25 36.9444 35.625 35C35 33.0556 33.8889 31.1111 32.2917 29.1667C30 26.3889 28.4723 23.7674 27.7084 21.3021C26.9445 18.8368 26.8056 15.9028 27.2917 12.5H35.4167C34.8612 15.1389 34.7744 17.2917 35.1563 18.9583C35.5382 20.625 36.5278 22.4306 38.125 24.375C40.7639 27.5694 42.448 30.3993 43.1771 32.8646C43.9063 35.3299 43.9237 38.2639 43.2292 41.6667H35.1042ZM51.7709 41.6667C52.7431 39.1667 52.9167 36.9444 52.2917 35C51.6667 33.0556 50.5556 31.1111 48.9584 29.1667C46.6667 26.3889 45.1389 23.7674 44.375 21.3021C43.6112 18.8368 43.4723 15.9028 43.9584 12.5H52.0834C51.5278 15.1389 51.441 17.2917 51.823 18.9583C52.2049 20.625 53.1945 22.4306 54.7917 24.375C57.4306 27.5694 59.1146 30.3993 59.8438 32.8646C60.573 35.3299 60.5903 38.2639 59.8959 41.6667H51.7709ZM20.8334 83.3333C17.3612 83.3333 14.4098 82.1181 11.9792 79.6875C9.54865 77.2569 8.33337 74.3056 8.33337 70.8333V50H66.7709C67.1181 47.6389 68.0556 45.5729 69.5834 43.8021C71.1112 42.0313 72.9862 40.7639 75.2084 40L94.4792 33.5417L97.0834 41.4583L77.8126 47.9167C76.9792 48.1944 76.3021 48.6979 75.7813 49.4271C75.2605 50.1563 75.0001 50.9722 75.0001 51.875V70.8333C75.0001 74.3056 73.7848 77.2569 71.3542 79.6875C68.9237 82.1181 65.9723 83.3333 62.5 83.3333H20.8334ZM20.8334 75H62.5C63.6806 75 64.6702 74.6007 65.4688 73.8021C66.2674 73.0035 66.6667 72.0139 66.6667 70.8333V58.3333H16.6667V70.8333C16.6667 72.0139 17.066 73.0035 17.8646 73.8021C18.6632 74.6007 19.6528 75 20.8334 75Z" fill="#1C1B1F"/>
</g>
</svg>
